<svg width="16" height="17" viewBox="0 0 16 17" fill="none" xmlns="http://www.w3.org/2000/svg">
<path fill-rule="evenodd" clip-rule="evenodd" d="M2.96764 11.06C3.3211 11.06 3.60764 11.3465 3.60764 11.7V12.98C3.60764 13.1497 3.67505 13.3125 3.7951 13.4325C3.91511 13.5525 4.07789 13.62 4.24764 13.62H11.9276C12.0974 13.62 12.2601 13.5526 12.3802 13.4325C12.5002 13.3125 12.5676 13.1497 12.5676 12.98V11.7C12.5676 11.3465 12.8542 11.06 13.2076 11.06C13.5611 11.06 13.8476 11.3465 13.8476 11.7V12.98C13.8476 13.4892 13.6454 13.9776 13.2853 14.3376C12.9252 14.6977 12.4368 14.9 11.9276 14.9H4.24764C3.73843 14.9 3.25006 14.6978 2.88998 14.3376C2.52993 13.9776 2.32764 13.4892 2.32764 12.98V11.7C2.32764 11.3465 2.61417 11.06 2.96764 11.06Z" fill="#00D390"/>
<path fill-rule="evenodd" clip-rule="evenodd" d="M4.43501 7.40743C4.68495 7.15749 5.09017 7.15749 5.34011 7.40743L8.08755 10.1549L10.835 7.40743C11.0849 7.15749 11.4902 7.15749 11.7401 7.40743C11.9901 7.65735 11.9901 8.06259 11.7401 8.31251L8.54009 11.5125C8.29017 11.7624 7.88492 11.7624 7.635 11.5125L4.43501 8.31251C4.18508 8.06259 4.18508 7.65735 4.43501 7.40743Z" fill="#00D390"/>
<path fill-rule="evenodd" clip-rule="evenodd" d="M8.08775 2.73999C8.44123 2.73999 8.72775 3.02653 8.72775 3.37999V11.06C8.72775 11.4135 8.44123 11.7 8.08775 11.7C7.73428 11.7 7.44775 11.4135 7.44775 11.06V3.37999C7.44775 3.02653 7.73428 2.73999 8.08775 2.73999Z" fill="#00D390"/>
</svg>
