<svg width="16" height="17" viewBox="0 0 16 17" fill="none" xmlns="http://www.w3.org/2000/svg">
<g clip-path="url(#clip0_1_539)">
<path d="M15.9583 6.63754C15.8536 6.31356 15.5662 6.08345 15.2262 6.05281L10.6082 5.63348L8.78208 1.35933C8.64744 1.04609 8.34079 0.843323 8.00008 0.843323C7.65938 0.843323 7.35273 1.04609 7.21808 1.36006L5.39198 5.63348L0.773211 6.05281C0.433847 6.08418 0.147219 6.31356 0.0418692 6.63754C-0.0634802 6.96152 0.0338123 7.31688 0.290533 7.54088L3.78122 10.6022L2.7519 15.1364C2.67658 15.4698 2.80598 15.8144 3.0826 16.0144C3.23128 16.1218 3.40524 16.1765 3.58066 16.1765C3.73191 16.1765 3.88193 16.1357 4.01658 16.0551L8.00008 13.6743L11.9821 16.0551C12.2735 16.2304 12.6408 16.2144 12.9168 16.0144C13.1936 15.8138 13.3229 15.4691 13.2475 15.1364L12.2182 10.6022L15.7089 7.54149C15.9656 7.31688 16.0636 6.96213 15.9583 6.63754Z" fill="#FF8811"/>
</g>
<defs>
<clipPath id="clip0_1_539">
<rect width="16" height="16" fill="white" transform="translate(0 0.5)"/>
</clipPath>
</defs>
</svg>
